<svg width="16" height="16" viewBox="0 0 16 16" fill="none" xmlns="http://www.w3.org/2000/svg">
<path d="M14.8571 0C15.4643 0 16 0.535714 16 1.17857V14.8571C16 15.5 15.4643 16 14.8571 16H1.10714C0.5 16 0 15.5 0 14.8571V1.17857C0 0.535714 0.5 0 1.10714 0H14.8571ZM4.82143 13.7143V6.10714H2.46429V13.7143H4.82143ZM3.64286 5.03571C4.39286 5.03571 5 4.42857 5 3.67857C5 2.92857 4.39286 2.28571 3.64286 2.28571C2.85714 2.28571 2.25 2.92857 2.25 3.67857C2.25 4.42857 2.85714 5.03571 3.64286 5.03571ZM13.7143 13.7143V9.53571C13.7143 7.5 13.25 5.89286 10.8571 5.89286C9.71429 5.89286 8.92857 6.53571 8.60714 7.14286H8.57143V6.10714H6.32143V13.7143H8.67857V9.96429C8.67857 8.96429 8.85714 8 10.1071 8C11.3214 8 11.3214 9.14286 11.3214 10V13.7143H13.7143Z" fill="#979797"/>
</svg>
