<svg width="18" height="15" viewBox="0 0 18 15" fill="none" xmlns="http://www.w3.org/2000/svg">
<path d="M7.2 1.35C4.07812 1.35 1.575 3.88125 1.575 6.975C1.575 10.0969 4.07812 12.6 7.2 12.6C10.2937 12.6 12.825 10.0969 12.825 6.975C12.825 3.88125 10.2937 1.35 7.2 1.35ZM7.2 0C11.025 0 14.175 3.15 14.175 6.975C14.175 10.8281 11.025 13.95 7.2 13.95C3.34687 13.95 0.225 10.8281 0.225 6.975C0.225 3.15 3.34687 0 7.2 0ZM7.2 4.725C8.4375 4.725 9.45 5.7375 9.45 6.975C9.45 8.24062 8.4375 9.225 7.2 9.225C5.93437 9.225 4.95 8.24062 4.95 6.975C4.95 5.7375 5.93437 4.725 7.2 4.725Z" fill="#F3BF6C"/>
</svg>
